<svg>
  <defs>
    <g id="trello">
       <path d="M4,3H20A1,1 0 0,1 21,4V20A1,1 0 0,1 20,21H4A1,1 0 0,1 3,20V4A1,1 0 0,1 4,3M5.5,5A0.5,0.5 0 0,0 5,5.5V17.5A0.5,0.5 0 0,0 5.5,18H10.5A0.5,0.5 0 0,0 11,17.5V5.5A0.5,0.5 0 0,0 10.5,5H5.5M13.5,5A0.5,0.5 0 0,0 13,5.5V11.5A0.5,0.5 0 0,0 13.5,12H18.5A0.5,0.5 0 0,0 19,11.5V5.5A0.5,0.5 0 0,0 18.5,5H13.5Z" />
    </g>
    <g id="comment-text-outline">
      <path d="M9,22A1,1 0 0,1 8,21V18H4A2,2 0 0,1 2,16V4C2,2.89 2.9,2 4,2H20A2,2 0 0,1 22,4V16A2,2 0 0,1 20,18H13.9L10.2,21.71C10,21.9 9.75,22 9.5,22V22H9M10,16V19.08L13.08,16H20V4H4V16H10M6,7H18V9H6V7M6,11H15V13H6V11Z" />
    </g>
    <g id="close">
      <path d="M19,6.41L17.59,5L12,10.59L6.41,5L5,6.41L10.59,12L5,17.59L6.41,19L12,13.41L17.59,19L19,17.59L13.41,12L19,6.41Z" />
    </g>
    <g id="plus">
      <path d="M19,13H13V19H11V13H5V11H11V5H13V11H19V13Z" />
    </g>
    <g id="menu">
      <path d="M3,6H21V8H3V6M3,11H21V13H3V11M3,16H21V18H3V16Z" />
    </g>
    <g id="more">
     <path d="M12 8c1.1 0 2-.9 2-2s-.9-2-2-2-2 .9-2 2 .9 2 2 2zm0 2c-1.1 0-2 .9-2 2s.9 2 2 2 2-.9 2-2-.9-2-2-2zm0 6c-1.1 0-2 .9-2 2s.9 2 2 2 2-.9 2-2-.9-2-2-2z"/>
    </g>
    <g id="unfold-more">
      <path d="M12,18.17L8.83,15L7.42,16.41L12,21L16.59,16.41L15.17,15M12,5.83L15.17,9L16.58,7.59L12,3L7.41,7.59L8.83,9L12,5.83Z" />
    </g>
    <g id="dashboard">
      <path d="M13,3V9H21V3M13,21H21V11H13M3,21H11V15H3M3,13H11V3H3V13Z"/>
    </g>
    <g id="gmail">
      <path d="M20,18H18V9.25L12,13L6,9.25V18H4V6H5.2L12,10.25L18.8,6H20M20,4H4C2.89,4 2,4.89 2,6V18A2,2 0 0,0 4,20H20A2,2 0 0,0 22,18V6C22,4.89 21.1,4 20,4Z"/>
    </g>
    <g id="settings">
      <path d="M12,15.5A3.5,3.5 0 0,1 8.5,12A3.5,3.5 0 0,1 12,8.5A3.5,3.5 0 0,1 15.5,12A3.5,3.5 0 0,1 12,15.5M19.43,12.97C19.47,12.65 19.5,12.33 19.5,12C19.5,11.67 19.47,11.34 19.43,11L21.54,9.37C21.73,9.22 21.78,8.95 21.66,8.73L19.66,5.27C19.54,5.05 19.27,4.96 19.05,5.05L16.56,6.05C16.04,5.66 15.5,5.32 14.87,5.07L14.5,2.42C14.46,2.18 14.25,2 14,2H10C9.75,2 9.54,2.18 9.5,2.42L9.13,5.07C8.5,5.32 7.96,5.66 7.44,6.05L4.95,5.05C4.73,4.96 4.46,5.05 4.34,5.27L2.34,8.73C2.21,8.95 2.27,9.22 2.46,9.37L4.57,11C4.53,11.34 4.5,11.67 4.5,12C4.5,12.33 4.53,12.65 4.57,12.97L2.46,14.63C2.27,14.78 2.21,15.05 2.34,15.27L4.34,18.73C4.46,18.95 4.73,19.03 4.95,18.95L7.44,17.94C7.96,18.34 8.5,18.68 9.13,18.93L9.5,21.58C9.54,21.82 9.75,22 10,22H14C14.25,22 14.46,21.82 14.5,21.58L14.87,18.93C15.5,18.67 16.04,18.34 16.56,17.94L19.05,18.95C19.27,19.03 19.54,18.95 19.66,18.73L21.66,15.27C21.78,15.05 21.73,14.78 21.54,14.63L19.43,12.97Z"/>
    </g>
    <g id="code-braces">
      <path d="M8,3A2,2 0 0,0 6,5V9A2,2 0 0,1 4,11H3V13H4A2,2 0 0,1 6,15V19A2,2 0 0,0 8,21H10V19H8V14A2,2 0 0,0 6,12A2,2 0 0,0 8,10V5H10V3M16,3A2,2 0 0,1 18,5V9A2,2 0 0,0 20,11H21V13H20A2,2 0 0,0 18,15V19A2,2 0 0,1 16,21H14V19H16V14A2,2 0 0,1 18,12A2,2 0 0,1 16,10V5H14V3H16Z" />
    </g>
    <g id="border-color">
      <path d="M20.71,4.04C21.1,3.65 21.1,3 20.71,2.63L18.37,0.29C18,-0.1 17.35,-0.1 16.96,0.29L15,2.25L18.75,6M17.75,7L14,3.25L4,13.25V17H7.75L17.75,7Z" />
    </g>
    <g id="table-edit">
      <path d="M21.7,13.35L20.7,14.35L18.65,12.3L19.65,11.3C19.86,11.08 20.21,11.08 20.42,11.3L21.7,12.58C21.92,12.79 21.92,13.14 21.7,13.35M12,18.94L18.07,12.88L20.12,14.93L14.06,21H12V18.94M4,2H18A2,2 0 0,1 20,4V8.17L16.17,12H12V16.17L10.17,18H4A2,2 0 0,1 2,16V4A2,2 0 0,1 4,2M4,6V10H10V6H4M12,6V10H18V6H12M4,12V16H10V12H4Z" />
    </g>
    <g id="printer">
      <path d="M18,3H6V7H18M19,12A1,1 0 0,1 18,11A1,1 0 0,1 19,10A1,1 0 0,1 20,11A1,1 0 0,1 19,12M16,19H8V14H16M19,8H5A3,3 0 0,0 2,11V17H6V21H18V17H22V11A3,3 0 0,0 19,8Z" />
    </g>
    <g id="calendar-today">
      <path d="M7,10H12V15H7M19,19H5V8H19M19,3H18V1H16V3H8V1H6V3H5C3.89,3 3,3.9 3,5V19A2,2 0 0,0 5,21H19A2,2 0 0,0 21,19V5A2,2 0 0,0 19,3Z" />
    </g>
    <g id="clock">
      <path d="M12,20A8,8 0 0,0 20,12A8,8 0 0,0 12,4A8,8 0 0,0 4,12A8,8 0 0,0 12,20M12,2A10,10 0 0,1 22,12A10,10 0 0,1 12,22C6.47,22 2,17.5 2,12A10,10 0 0,1 12,2M12.5,7V12.25L17,14.92L16.25,16.15L11,13V7H12.5Z" />
    </g>
    <g id="cow">
      <path d="M10.5,18A0.5,0.5 0 0,1 11,18.5A0.5,0.5 0 0,1 10.5,19A0.5,0.5 0 0,1 10,18.5A0.5,0.5 0 0,1 10.5,18M13.5,18A0.5,0.5 0 0,1 14,18.5A0.5,0.5 0 0,1 13.5,19A0.5,0.5 0 0,1 13,18.5A0.5,0.5 0 0,1 13.5,18M10,11A1,1 0 0,1 11,12A1,1 0 0,1 10,13A1,1 0 0,1 9,12A1,1 0 0,1 10,11M14,11A1,1 0 0,1 15,12A1,1 0 0,1 14,13A1,1 0 0,1 13,12A1,1 0 0,1 14,11M18,18C18,20.21 15.31,22 12,22C8.69,22 6,20.21 6,18C6,17.1 6.45,16.27 7.2,15.6C6.45,14.6 6,13.35 6,12L6.12,10.78C5.58,10.93 4.93,10.93 4.4,10.78C3.38,10.5 1.84,9.35 2.07,8.55C2.3,7.75 4.21,7.6 5.23,7.9C5.82,8.07 6.45,8.5 6.82,8.96L7.39,8.15C6.79,7.05 7,4 10,3L9.91,3.14V3.14C9.63,3.58 8.91,4.97 9.67,6.47C10.39,6.17 11.17,6 12,6C12.83,6 13.61,6.17 14.33,6.47C15.09,4.97 14.37,3.58 14.09,3.14L14,3C17,4 17.21,7.05 16.61,8.15L17.18,8.96C17.55,8.5 18.18,8.07 18.77,7.9C19.79,7.6 21.7,7.75 21.93,8.55C22.16,9.35 20.62,10.5 19.6,10.78C19.07,10.93 18.42,10.93 17.88,10.78L18,12C18,13.35 17.55,14.6 16.8,15.6C17.55,16.27 18,17.1 18,18M12,16C9.79,16 8,16.9 8,18C8,19.1 9.79,20 12,20C14.21,20 16,19.1 16,18C16,16.9 14.21,16 12,16M12,14C13.12,14 14.17,14.21 15.07,14.56C15.65,13.87 16,13 16,12A4,4 0 0,0 12,8A4,4 0 0,0 8,12C8,13 8.35,13.87 8.93,14.56C9.83,14.21 10.88,14 12,14M14.09,3.14V3.14Z" />
    </g>
    <g id="target">
      <path d="M17.92,13C17.5,15.5 15.5,17.5 13,17.92V16H11V17.92C8.5,17.5 6.5,15.5 6.08,13H8V11H6.08C6.5,8.5 8.5,6.5 11,6.08V8H13V6.08C15.5,6.5 17.5,8.5 17.92,11H16V13H17.92M19.94,11C19.5,7.38 16.62,4.5 13,4.06V2H11V4.06C7.38,4.5 4.5,7.38 4.06,11H2V13H4.06C4.5,16.62 7.38,19.5 11,19.94V22H13V19.94C16.62,19.5 19.5,16.62 19.94,13H22V11H19.94M12,10A2,2 0 0,1 14,12A2,2 0 0,1 12,14A2,2 0 0,1 10,12A2,2 0 0,1 12,10H12Z" />
    </g>
    <g id="run">
       <path d="M17.12,10L16.04,8.18L15.31,11.05L17.8,15.59V22H16V17L13.67,13.89L12.07,18.4L7.25,20.5L6.2,19L10.39,16.53L12.91,6.67L10.8,7.33V11H9V5.8L14.42,4.11L14.92,4.03C15.54,4.03 16.08,4.37 16.38,4.87L18.38,8.2H22V10H17.12M17,3.8C16,3.8 15.2,3 15.2,2C15.2,1 16,0.2 17,0.2C18,0.2 18.8,1 18.8,2C18.8,3 18,3.8 17,3.8M7,9V11H4A1,1 0 0,1 3,10A1,1 0 0,1 4,9H7M9.25,13L8.75,15H5A1,1 0 0,1 4,14A1,1 0 0,1 5,13H9.25M7,5V7H3A1,1 0 0,1 2,6A1,1 0 0,1 3,5H7Z" />
    </g>
    <g id="phone">
       <path d="M6.62,10.79C8.06,13.62 10.38,15.94 13.21,17.38L15.41,15.18C15.69,14.9 16.08,14.82 16.43,14.93C17.55,15.3 18.75,15.5 20,15.5A1,1 0 0,1 21,16.5V20A1,1 0 0,1 20,21A17,17 0 0,1 3,4A1,1 0 0,1 4,3H7.5A1,1 0 0,1 8.5,4C8.5,5.25 8.7,6.45 9.07,7.57C9.18,7.92 9.1,8.31 8.82,8.59L6.62,10.79Z" />
    </g>
    <g id="radioactive">
      <path d="M12,10A2,2 0 0,1 14,12A2,2 0 0,1 12,14A2,2 0 0,1 10,12A2,2 0 0,1 12,10M12,22C10.05,22 8.22,21.44 6.69,20.47L10,15.47C10.6,15.81 11.28,16 12,16C12.72,16 13.4,15.81 14,15.47L17.31,20.47C15.78,21.44 13.95,22 12,22M2,12C2,7.86 4.5,4.3 8.11,2.78L10.34,8.36C8.96,9 8,10.38 8,12H2M16,12C16,10.38 15.04,9 13.66,8.36L15.89,2.78C19.5,4.3 22,7.86 22,12H16Z" />
    </g>
    <g id="check">
      <path d="M21,7L9,19L3.5,13.5L4.91,12.09L9,16.17L19.59,5.59L21,7Z" />
    </g>
    <g id="tshirt-crew">
     <path d="M16,21H8A1,1 0 0,1 7,20V12.07L5.7,13.12C5.31,13.5 4.68,13.5 4.29,13.12L1.46,10.29C1.07,9.9 1.07,9.27 1.46,8.88L7.34,3H9C9,4.1 10.34,5 12,5C13.66,5 15,4.1 15,3H16.66L22.54,8.88C22.93,9.27 22.93,9.9 22.54,10.29L19.71,13.12C19.32,13.5 18.69,13.5 18.3,13.12L17,12.07V20A1,1 0 0,1 16,21M20.42,9.58L16.11,5.28C15.8,5.63 15.43,5.94 15,6.2C14.16,6.7 13.13,7 12,7C10.3,7 8.79,6.32 7.89,5.28L3.58,9.58L5,11L8,9H9V19H15V9H16L19,11L20.42,9.58Z" />
    </g>
    <g id="cart">
      <path d="M17,18C15.89,18 15,18.89 15,20A2,2 0 0,0 17,22A2,2 0 0,0 19,20C19,18.89 18.1,18 17,18M1,2V4H3L6.6,11.59L5.24,14.04C5.09,14.32 5,14.65 5,15A2,2 0 0,0 7,17H19V15H7.42A0.25,0.25 0 0,1 7.17,14.75C7.17,14.7 7.18,14.66 7.2,14.63L8.1,13H15.55C16.3,13 16.96,12.58 17.3,11.97L20.88,5.5C20.95,5.34 21,5.17 21,5A1,1 0 0,0 20,4H5.21L4.27,2M7,18C5.89,18 5,18.89 5,20A2,2 0 0,0 7,22A2,2 0 0,0 9,20C9,18.89 8.1,18 7,18Z" />
    </g>
    <g id="help">
       <path d="M10,19H13V22H10V19M12,2A6,6 0 0,1 18,8C17.67,9.33 17.33,10.67 16.5,11.67C15.67,12.67 14.33,13.33 13.67,14.17C13,15 13,16 13,17H10C10,15.33 10,13.92 10.67,12.92C11.33,11.92 12.67,11.33 13.5,10.67C14.33,10 14.67,9 15,8A3,3 0 0,0 12,5A3,3 0 0,0 9,8H6A6,6 0 0,1 12,2Z" />
    </g>
    <g id="view-list">
      <path d="M9,5V9H21V5M9,19H21V15H9M9,14H21V10H9M4,9H8V5H4M4,19H8V15H4M4,14H8V10H4V14Z" />
    </g>
    <g id="delete">
      <path d="M19,4H15.5L14.5,3H9.5L8.5,4H5V6H19M6,19A2,2 0 0,0 8,21H16A2,2 0 0,0 18,19V7H6V19Z" />
    </g>
    <g id="trending-down">
      <path d="M16,18L18.29,15.71L13.41,10.83L9.41,14.83L2,7.41L3.41,6L9.41,12L13.41,8L19.71,14.29L22,12V18H16Z" />
    </g>
    <g id="autorenew">
      <path d="M12,6V9L16,5L12,1V4A8,8 0 0,0 4,12C4,13.57 4.46,15.03 5.24,16.26L6.7,14.8C6.25,13.97 6,13 6,12A6,6 0 0,1 12,6M18.76,7.74L17.3,9.2C17.74,10.04 18,11 18,12A6,6 0 0,1 12,18V15L8,19L12,23V20A8,8 0 0,0 20,12C20,10.43 19.54,8.97 18.76,7.74Z" />
    </g>
    <g id="markdown">
      <path d="M2,16V8H4L7,11L10,8H12V16H10V10.83L7,13.83L4,10.83V16H2M16,8H19V12H21.5L17.5,16.5L13.5,12H16V8Z" />
    </g>
    <g id="format-color-fill">
      <path d="M19,11.5C19,11.5 17,13.67 17,15A2,2 0 0,0 19,17A2,2 0 0,0 21,15C21,13.67 19,11.5 19,11.5M5.21,10L10,5.21L14.79,10M16.56,8.94L7.62,0L6.21,1.41L8.59,3.79L3.44,8.94C2.85,9.5 2.85,10.47 3.44,11.06L8.94,16.56C9.23,16.85 9.62,17 10,17C10.38,17 10.77,16.85 11.06,16.56L16.56,11.06C17.15,10.47 17.15,9.5 16.56,8.94Z" />
    </g>
    <g id="owl">
      <path d="M12,16C12.56,16.84 13.31,17.53 14.2,18L12,20.2L9.8,18C10.69,17.53 11.45,16.84 12,16M17,11.2A2,2 0 0,0 15,13.2A2,2 0 0,0 17,15.2A2,2 0 0,0 19,13.2C19,12.09 18.1,11.2 17,11.2M7,11.2A2,2 0 0,0 5,13.2A2,2 0 0,0 7,15.2A2,2 0 0,0 9,13.2C9,12.09 8.1,11.2 7,11.2M17,8.7A4,4 0 0,1 21,12.7A4,4 0 0,1 17,16.7A4,4 0 0,1 13,12.7A4,4 0 0,1 17,8.7M7,8.7A4,4 0 0,1 11,12.7A4,4 0 0,1 7,16.7A4,4 0 0,1 3,12.7A4,4 0 0,1 7,8.7M2.24,1C4,4.7 2.73,7.46 1.55,10.2C1.19,11 1,11.83 1,12.7A6,6 0 0,0 7,18.7C7.21,18.69 7.42,18.68 7.63,18.65L10.59,21.61L12,23L13.41,21.61L16.37,18.65C16.58,18.68 16.79,18.69 17,18.7A6,6 0 0,0 23,12.7C23,11.83 22.81,11 22.45,10.2C21.27,7.46 20,4.7 21.76,1C19.12,3.06 15.36,4.69 12,4.7C8.64,4.69 4.88,3.06 2.24,1Z" />
    </g>
    <g id="eye">
      <path d="M12,9A3,3 0 0,0 9,12A3,3 0 0,0 12,15A3,3 0 0,0 15,12A3,3 0 0,0 12,9M12,17A5,5 0 0,1 7,12A5,5 0 0,1 12,7A5,5 0 0,1 17,12A5,5 0 0,1 12,17M12,4.5C7,4.5 2.73,7.61 1,12C2.73,16.39 7,19.5 12,19.5C17,19.5 21.27,16.39 23,12C21.27,7.61 17,4.5 12,4.5Z" />
    </g>
    <g id="chart-bar">
      <path d="M22,21H2V3H4V19H6V10H10V19H12V6H16V19H18V14H22V21Z" />
    </g>
    <g id="hexagon">
      <path d="M21,16.5C21,16.88 20.79,17.21 20.47,17.38L12.57,21.82C12.41,21.94 12.21,22 12,22C11.79,22 11.59,21.94 11.43,21.82L3.53,17.38C3.21,17.21 3,16.88 3,16.5V7.5C3,7.12 3.21,6.79 3.53,6.62L11.43,2.18C11.59,2.06 11.79,2 12,2C12.21,2 12.41,2.06 12.57,2.18L20.47,6.62C20.79,6.79 21,7.12 21,7.5V16.5Z" />
    </g>
  </defs>
</svg>
