<?xml version="1.0" encoding="utf-8"?>
<!-- Generator: Adobe Illustrator 16.0.0, SVG Export Plug-In . SVG Version: 6.00 Build 0)  -->
<!DOCTYPE svg PUBLIC "-//W3C//DTD SVG 1.1 Tiny//EN" "http://www.w3.org/Graphics/SVG/1.1/DTD/svg11-tiny.dtd">
<svg version="1.1" baseProfile="tiny" id="Layer_1" xmlns="http://www.w3.org/2000/svg" xmlns:xlink="http://www.w3.org/1999/xlink"
	 x="0px" y="0px" width="24px" height="24px" viewBox="0 0 24 24" xml:space="preserve">
<g>
	<path d="M12,16.789c-0.165,0-0.313-0.101-0.373-0.255c-1.47-3.786-5.519-2.513-5.536-2.509c-0.11,0.035-0.231,0.022-0.33-0.038
		s-0.168-0.16-0.188-0.274c-0.567-3.279-3.384-3.534-4.234-3.534c-0.218,0-0.172,0.005-0.189,0.005
		c-0.153,0-0.294-0.088-0.361-0.228C0.718,9.808,0.744,9.631,0.856,9.511c2.082-2.235,4.609-2.299,4.89-2.299
		c0.162,0,0.316,0.097,0.378,0.247c0.513,1.239,2.917,1.757,4.126,1.896l0.311-0.983c0.051-0.161,0.198-0.273,0.367-0.279
		c0.183-0.003,0.324,0.096,0.386,0.252l0.347,0.877h0.673l0.347-0.877c0.063-0.157,0.218-0.258,0.386-0.252
		c0.169,0.006,0.316,0.118,0.368,0.279l0.313,0.983c1.209-0.139,3.613-0.657,4.127-1.896c0.062-0.147,0.204-0.244,0.363-0.247h0.001
		c0.299,0,2.821,0.066,4.903,2.299c0.112,0.121,0.139,0.297,0.068,0.445c-0.07,0.148-0.226,0.236-0.39,0.227
		c-0.007,0-0.064-0.004-0.161-0.004c-0.85,0-3.667,0.255-4.232,3.534c-0.02,0.114-0.088,0.214-0.188,0.274
		c-0.099,0.061-0.22,0.074-0.33,0.038c-0.017-0.005-4.069-1.278-5.539,2.509C12.313,16.688,12.165,16.789,12,16.789z M7.677,13.005
		c1.917,0,3.424,0.86,4.32,2.444c1.571-2.82,4.597-2.538,5.73-2.296c0.677-2.818,2.907-3.539,4.168-3.718
		c-1.393-1.134-2.852-1.365-3.409-1.412c-1.081,1.858-4.827,2.147-4.993,2.159c-0.188,0.019-0.354-0.102-0.41-0.278l-0.07-0.221
		L12.98,9.77c-0.061,0.152-0.208,0.252-0.372,0.252h-1.217c-0.164,0-0.312-0.1-0.372-0.252l-0.033-0.084l-0.069,0.218
		c-0.056,0.176-0.234,0.298-0.41,0.278c-0.166-0.012-3.913-0.3-4.993-2.159C4.953,8.071,3.494,8.303,2.104,9.436
		c1.261,0.18,3.493,0.9,4.171,3.718C6.605,13.083,7.101,13.005,7.677,13.005z"/>
</g>
</svg>
