<svg>
  <defs>
    <g id="trello">
       <path d="M4,3H20A1,1 0 0,1 21,4V20A1,1 0 0,1 20,21H4A1,1 0 0,1 3,20V4A1,1 0 0,1 4,3M5.5,5A0.5,0.5 0 0,0 5,5.5V17.5A0.5,0.5 0 0,0 5.5,18H10.5A0.5,0.5 0 0,0 11,17.5V5.5A0.5,0.5 0 0,0 10.5,5H5.5M13.5,5A0.5,0.5 0 0,0 13,5.5V11.5A0.5,0.5 0 0,0 13.5,12H18.5A0.5,0.5 0 0,0 19,11.5V5.5A0.5,0.5 0 0,0 18.5,5H13.5Z" />
    </g>
    <g id="comment-text-outline">
      <path d="M9,22A1,1 0 0,1 8,21V18H4A2,2 0 0,1 2,16V4C2,2.89 2.9,2 4,2H20A2,2 0 0,1 22,4V16A2,2 0 0,1 20,18H13.9L10.2,21.71C10,21.9 9.75,22 9.5,22V22H9M10,16V19.08L13.08,16H20V4H4V16H10M6,7H18V9H6V7M6,11H15V13H6V11Z" />
    </g>
    <g id="close">
      <path d="M19,6.41L17.59,5L12,10.59L6.41,5L5,6.41L10.59,12L5,17.59L6.41,19L12,13.41L17.59,19L19,17.59L13.41,12L19,6.41Z" />
    </g>
    <g id="plus">
      <path d="M19,13H13V19H11V13H5V11H11V5H13V11H19V13Z" />
    </g>
    <g id="menu">
      <path d="M3,6H21V8H3V6M3,11H21V13H3V11M3,16H21V18H3V16Z" />
    </g>
    <g id="menu-down">
      <path d="M7,10L12,15L17,10H7Z" />
    </g>
    <g id="menu-left">
      <path d="M14,7L9,12L14,17V7Z" />
    </g>
    <g id="menu-right">
      <path d="M10,17L15,12L10,7V17Z" />
    </g>
    <g id="menu-up">
      <path d="M7,15L12,10L17,15H7Z" />
    </g>
    <g id="more_vert">
     <path d="M12 8c1.1 0 2-.9 2-2s-.9-2-2-2-2 .9-2 2 .9 2 2 2zm0 2c-1.1 0-2 .9-2 2s.9 2 2 2 2-.9 2-2-.9-2-2-2zm0 6c-1.1 0-2 .9-2 2s.9 2 2 2 2-.9 2-2-.9-2-2-2z"/>
    </g>
    <g id="unfold-more">
      <path d="M12,18.17L8.83,15L7.42,16.41L12,21L16.59,16.41L15.17,15M12,5.83L15.17,9L16.58,7.59L12,3L7.41,7.59L8.83,9L12,5.83Z" />
    </g>
  </defs>
</svg>
