<?xml version="1.0" encoding="iso-8859-1"?>
<!-- Generator: Adobe Illustrator 16.0.0, SVG Export Plug-In . SVG Version: 6.00 Build 0)  -->
<!DOCTYPE svg PUBLIC "-//W3C//DTD SVG 1.1//EN" "http://www.w3.org/Graphics/SVG/1.1/DTD/svg11.dtd">
<svg version="1.1" id="Capa_1" xmlns="http://www.w3.org/2000/svg" xmlns:xlink="http://www.w3.org/1999/xlink" x="0px" y="0px"
	 width="195.559px" height="195.559px" viewBox="0 0 195.559 195.559" style="enable-background:new 0 0 195.559 195.559;"
	 xml:space="preserve">
<g>
	<path d="M97.722,187.713c0,0,12.078-142.239,67.179-70.068c5.553-3.488,30.658-17.637,30.658-49.653
		c0-32.026-25.842-56.386-63.814-56.386c9.73,5.1,20.387,14.702,10.882,23.669c-10.139,9.557-36.115,13.167-36.115-27.429
		c-5.699,15.024-9.87,14.489-15.98,0.286c0.231,16.492-6.976,46.652-37.281,26.911c-7.419-4.184-7.151-19.967,10.053-23.483
		C53.338,11.328,0,17.871,0,67.991c0.231,37.348,31.252,52.437,31.252,52.437S76.571,35.847,97.722,187.713z"/>
</g>
<g>
</g>
<g>
</g>
<g>
</g>
<g>
</g>
<g>
</g>
<g>
</g>
<g>
</g>
<g>
</g>
<g>
</g>
<g>
</g>
<g>
</g>
<g>
</g>
<g>
</g>
<g>
</g>
<g>
</g>
</svg>
